<svg xmlns="http://www.w3.org/2000/svg" xmlns:xlink="http://www.w3.org/1999/xlink" xmlns:lucid="lucid" width="1760" height="1360"><g transform="translate(0 0)" lucid:page-tab-id="0_0"><path d="M0 0h1760v1360H0z" fill="#fff"/><path d="M1015.9 120c27.03 0 48.96 54.14 48.96 120.92 0 66.8-21.92 120.93-48.97 120.93H868.96c-27.04 0-48.97-54.14-48.97-120.93C820 174.14 841.93 120 868.97 120z" stroke="#000" stroke-opacity="0" stroke-width="2" fill="#3278ca"/><use xlink:href="#a" transform="matrix(1,0,0,1,825,125) translate(13.592814149631064 119.6263423391502)"/><use xlink:href="#b" transform="matrix(1,0,0,1,825,125) translate(70.56529186474542 119.6263423391502)"/><use xlink:href="#c" transform="matrix(1,0,0,1,825,125) translate(98.55089383552655 119.6263423391502)"/><use xlink:href="#d" transform="matrix(1,0,0,1,825,125) translate(144.50936004156782 119.6263423391502)"/><path d="M828.8 468a8 8 0 0 1 8-8h228.87a8 8 0 0 1 8 8v222.18a8 8 0 0 1-8 8H836.8a8 8 0 0 1-8-8z" stroke="#000" stroke-opacity="0" stroke-width="2" fill="#3278ca"/><use xlink:href="#e" transform="matrix(1,0,0,1,833.8087394731908,465) translate(56.9730003887757 96.8450923391502)"/><use xlink:href="#f" transform="matrix(1,0,0,1,833.8087394731908,465) translate(155.04776650820367 96.8450923391502)"/><use xlink:href="#g" transform="matrix(1,0,0,1,833.8087394731908,465) translate(15.069692965620415 118.47260584787551)"/><use xlink:href="#h" transform="matrix(1,0,0,1,833.8087394731908,465) translate(140.0787235935998 118.47260584787551)"/><use xlink:href="#i" transform="matrix(1,0,0,1,833.8087394731908,465) translate(169.065599337933 118.47260584787551)"/><use xlink:href="#j" transform="matrix(1,0,0,1,833.8087394731908,465) translate(43.48083629016118 140.10011935660083)"/><use xlink:href="#k" transform="matrix(1,0,0,1,833.8087394731908,465) translate(89.43930249620246 140.10011935660083)"/><use xlink:href="#l" transform="matrix(1,0,0,1,833.8087394731908,465) translate(103.45713532593183 140.10011935660083)"/><use xlink:href="#m" transform="matrix(1,0,0,1,833.8087394731908,465) translate(122.43127333474408 140.10011935660083)"/><path d="M951.24 698.68v48.14" stroke="#333" fill="none"/><path d="M951.7 698.7h-.94v-.52h.95z" stroke="#333" stroke-width=".05" fill="#333"/><path d="M951.24 761.58l-4.64-14.26h9.27z" stroke="#333" fill="#333"/><path d="M1015.9 1000c27.03 0 48.96 35.55 48.96 79.4 0 43.84-21.92 79.4-48.97 79.4H868.96c-27.04 0-48.97-35.56-48.97-79.4 0-43.85 21.93-79.4 48.97-79.4z" stroke="#000" stroke-opacity="0" stroke-width="2" fill="#3278ca"/><g><use xlink:href="#n" transform="matrix(1,0,0,1,825,1005) translate(47.01032634193234 55.376342339150206)"/><use xlink:href="#o" transform="matrix(1,0,0,1,825,1005) translate(174.02190451701588 55.376342339150206)"/><use xlink:href="#p" transform="matrix(1,0,0,1,825,1005) translate(24.531730125687726 77.00385584787551)"/><use xlink:href="#q" transform="matrix(1,0,0,1,825,1005) translate(103.53223085894824 77.00385584787551)"/><use xlink:href="#r" transform="matrix(1,0,0,1,825,1005) translate(142.48178065012485 77.00385584787551)"/><use xlink:href="#s" transform="matrix(1,0,0,1,825,1005) translate(161.4559186589371 77.00385584787551)"/><use xlink:href="#t" transform="matrix(1,0,0,1,825,1005) translate(196.50050073326048 77.00385584787551)"/><use xlink:href="#u" transform="matrix(1,0,0,1,825,1005) translate(22.97975577668198 98.63136935660083)"/><use xlink:href="#v" transform="matrix(1,0,0,1,825,1005) translate(114.99681556611975 98.63136935660083)"/><use xlink:href="#w" transform="matrix(1,0,0,1,825,1005) translate(133.970953574932 98.63136935660083)"/></g><path d="M951.24 362.35v81.27" stroke="#333" fill="none"/><path d="M951.7 362.36h-.94v-.5h.95z" stroke="#333" stroke-width=".05" fill="#333"/><path d="M951.24 458.38l-4.64-14.26h9.27z" stroke="#333" fill="#333"/><path d="M871.24 771.2a8 8 0 0 1 8-8h144a8 8 0 0 1 8 8v137.6a8 8 0 0 1-8 8h-144a8 8 0 0 1-8-8z" stroke="#000" stroke-opacity="0" stroke-width="2" fill="#3278ca"/><g><use xlink:href="#x" transform="matrix(1,0,0,1,883.2387920847573,775.2) translate(21.525 18.4625)"/><use xlink:href="#y" transform="matrix(1,0,0,1,883.2387920847573,775.2) translate(32.025 40.0625)"/><use xlink:href="#z" transform="matrix(1,0,0,1,883.2387920847573,775.2) translate(81.025 40.0625)"/><use xlink:href="#A" transform="matrix(1,0,0,1,883.2387920847573,775.2) translate(8.074999999999996 61.6625)"/><use xlink:href="#B" transform="matrix(1,0,0,1,883.2387920847573,775.2) translate(33.075 83.26250000000002)"/><use xlink:href="#C" transform="matrix(1,0,0,1,883.2387920847573,775.2) translate(62.025000000000006 83.26250000000002)"/><use xlink:href="#D" transform="matrix(1,0,0,1,883.2387920847573,775.2) translate(9.574999999999996 104.86250000000001)"/><use xlink:href="#E" transform="matrix(1,0,0,1,883.2387920847573,775.2) translate(98.475 104.86250000000001)"/><use xlink:href="#F" transform="matrix(1,0,0,1,883.2387920847573,775.2) translate(112.475 104.86250000000001)"/><use xlink:href="#G" transform="matrix(1,0,0,1,883.2387920847573,775.2) translate(22.099999999999994 126.4625)"/><use xlink:href="#H" transform="matrix(1,0,0,1,883.2387920847573,775.2) translate(73 126.4625)"/></g><path d="M951.24 917.3v66.32" stroke="#333" fill="none"/><path d="M951.7 917.3h-.94v-.5h.95z" stroke="#333" stroke-width=".05" fill="#333"/><path d="M951.24 998.38l-4.64-14.26h9.27z" stroke="#333" fill="#333"/><defs><path fill="#fff" d="M248-139C247-14 144 9 11 0l48-248c105-6 190 8 189 109zm-34 0c1-70-52-87-126-82L50-27c98 7 163-21 164-112" id="I"/><path fill="#fff" d="M111-194c62-3 86 47 72 106H45c-7 38 6 69 45 68 27-1 43-14 53-32l24 11C152-15 129 4 87 4 38 3 12-23 12-71c0-70 32-119 99-123zm44 81c14-66-71-72-95-28-4 8-8 17-11 28h106" id="J"/><path fill="#fff" d="M76-167L44 0H12l33-167H18l4-23h27c3-47 25-81 82-69l-4 24c-35-8-44 15-46 45h37l-5 23H76" id="K"/><path fill="#fff" d="M50-231l6-30h32l-6 30H50zM6 0l37-190h31L37 0H6" id="L"/><path fill="#fff" d="M67-158c22-48 132-52 116 29L158 0h-32l25-140c3-38-53-32-70-12C52-117 51-52 38 0H6l36-190h30" id="M"/><path fill="#fff" d="M30-147c31-64 166-65 159 27C183-49 158 1 86 4 9 8 1-88 30-147zM88-20c53 0 68-48 68-100 0-31-11-51-44-50-52 1-68 46-68 97 0 32 13 53 44 53" id="N"/><g id="a"><use transform="matrix(0.050063688677604884,0,0,0.050063688677604884,0,0)" xlink:href="#I"/><use transform="matrix(0.050063688677604884,0,0,0.050063688677604884,12.966495367499665,0)" xlink:href="#J"/><use transform="matrix(0.050063688677604884,0,0,0.050063688677604884,22.97923310302064,0)" xlink:href="#K"/><use transform="matrix(0.050063688677604884,0,0,0.050063688677604884,27.98560197078113,0)" xlink:href="#L"/><use transform="matrix(0.050063688677604884,0,0,0.050063688677604884,31.940633376311915,0)" xlink:href="#M"/><use transform="matrix(0.050063688677604884,0,0,0.050063688677604884,41.953371111832894,0)" xlink:href="#N"/></g><path fill="#fff" d="M6 0l50-261h32L37 0H6" id="O"/><path fill="#fff" d="M55-144c13 50 104 24 104 88C159 21 15 23 1-39l26-10c6 40 102 42 102-4-13-50-104-23-104-87 0-71 143-71 148-8l-29 4c-5-35-85-37-89 0" id="P"/><g id="b"><use transform="matrix(0.050063688677604884,0,0,0.050063688677604884,0,0)" xlink:href="#O"/><use transform="matrix(0.050063688677604884,0,0,0.050063688677604884,3.955031405530786,0)" xlink:href="#N"/><use transform="matrix(0.050063688677604884,0,0,0.050063688677604884,13.967769141051763,0)" xlink:href="#P"/></g><path fill="#fff" d="M165-48c-4 18 1 34 23 27l-3 20c-29 8-62 0-52-35h-2C116-14 99 4 63 4 30 4 8-16 8-49c0-68 71-67 138-67 10-26 0-56-31-54-26 1-42 9-47 31l-32-5c8-67 160-71 144 15-5 28-9 54-15 81zM42-50c3 52 80 24 89-6 7-12 7-24 11-38-47 1-103-4-100 44" id="Q"/><path fill="#fff" d="M66-151c12-25 30-51 66-40l-6 26C45-176 58-65 38 0H6l36-190h30" id="R"/><path fill="#fff" d="M198-190L69 30C53 58 25 83-20 72c4-11-1-27 19-22 33-1 43-29 59-52L20-190h32L79-34l84-156h35" id="S"/><g id="c"><use transform="matrix(0.050063688677604884,0,0,0.050063688677604884,0,0)" xlink:href="#Q"/><use transform="matrix(0.050063688677604884,0,0,0.050063688677604884,10.012737735520977,0)" xlink:href="#R"/><use transform="matrix(0.050063688677604884,0,0,0.050063688677604884,15.970316688155958,0)" xlink:href="#R"/><use transform="matrix(0.050063688677604884,0,0,0.050063688677604884,21.92789564079094,0)" xlink:href="#Q"/><use transform="matrix(0.050063688677604884,0,0,0.050063688677604884,31.940633376311915,0)" xlink:href="#S"/></g><path fill="#fff" d="M103-194c29 0 47 14 56 36 2-11 5-23 8-32h30L160-5C157 61 82 97 21 62 9 55 4 45 1 30l28-7c7 42 83 31 92-3 4-16 9-38 13-55-13 20-29 36-62 36-40 0-60-25-60-64 0-71 23-131 91-131zm4 24c-53 0-58 54-61 104-2 27 10 44 36 44 49 0 65-50 67-102 1-29-15-46-42-46" id="T"/><g id="d"><use transform="matrix(0.050063688677604884,0,0,0.050063688677604884,0,0)" xlink:href="#N"/><use transform="matrix(0.050063688677604884,0,0,0.050063688677604884,10.012737735520977,0)" xlink:href="#R"/><use transform="matrix(0.050063688677604884,0,0,0.050063688677604884,15.970316688155958,0)" xlink:href="#L"/><use transform="matrix(0.050063688677604884,0,0,0.050063688677604884,19.925348093686743,0)" xlink:href="#T"/><use transform="matrix(0.050063688677604884,0,0,0.050063688677604884,29.938085829207722,0)" xlink:href="#L"/><use transform="matrix(0.050063688677604884,0,0,0.050063688677604884,33.89311723473851,0)" xlink:href="#M"/><use transform="matrix(0.050063688677604884,0,0,0.050063688677604884,43.90585497025949,0)" xlink:href="#Q"/><use transform="matrix(0.050063688677604884,0,0,0.050063688677604884,53.91859270578047,0)" xlink:href="#O"/><use transform="matrix(0.050063688677604884,0,0,0.050063688677604884,57.87362411131126,0)" xlink:href="#J"/><use transform="matrix(0.050063688677604884,0,0,0.050063688677604884,67.88636184683223,0)" xlink:href="#P"/></g><path fill="#fff" d="M20-101c0-91 52-143 145-150 126-9 127 168 53 223-23 17-55 32-93 32C57 4 20-33 20-101zm216-33c5-57-18-91-73-90-77 1-110 51-110 125 0 49 23 75 73 75 72-1 104-45 110-110" id="U"/><path fill="#fff" d="M68-162c25-46 127-43 121 31C183-60 169 1 98 4 69 5 53-11 43-31L36 0H5l52-261h31zm88 36c2-27-9-43-34-43-55 0-70 51-70 103 0 29 15 45 43 46 52 0 58-58 61-106" id="V"/><path fill="#fff" d="M51-54c-9 22 5 41 31 30L79-1C43 14 10-4 19-52l22-115H19l5-23h22l19-43h21l-9 43h35l-4 23H73" id="W"/><path fill="#fff" d="M248-111c6-24 9-61-24-58-72 9-57 108-77 169h-31l26-142c3-37-50-30-64-10C52-115 50-51 37 0H6l36-190h30c-1 10-6 24-4 32 13-43 101-52 105 5 13-22 29-41 61-41 90 0 28 129 23 194h-31" id="X"/><g id="e"><use transform="matrix(0.050063688677604884,0,0,0.050063688677604884,0,0)" xlink:href="#U"/><use transform="matrix(0.050063688677604884,0,0,0.050063688677604884,14.017832829729368,0)" xlink:href="#V"/><use transform="matrix(0.050063688677604884,0,0,0.050063688677604884,24.030570565250343,0)" xlink:href="#W"/><use transform="matrix(0.050063688677604884,0,0,0.050063688677604884,29.036939433010833,0)" xlink:href="#J"/><use transform="matrix(0.050063688677604884,0,0,0.050063688677604884,39.04967716853181,0)" xlink:href="#M"/><use transform="matrix(0.050063688677604884,0,0,0.050063688677604884,49.06241490405279,0)" xlink:href="#J"/><use transform="matrix(0.050063688677604884,0,0,0.050063688677604884,59.075152639573766,0)" xlink:href="#X"/><use transform="matrix(0.050063688677604884,0,0,0.050063688677604884,74.04419555417763,0)" xlink:href="#N"/><use transform="matrix(0.050063688677604884,0,0,0.050063688677604884,84.0569332896986,0)" xlink:href="#P"/></g><g id="f"><use transform="matrix(0.050063688677604884,0,0,0.050063688677604884,0,0)" xlink:href="#O"/><use transform="matrix(0.050063688677604884,0,0,0.050063688677604884,3.955031405530786,0)" xlink:href="#Q"/><use transform="matrix(0.050063688677604884,0,0,0.050063688677604884,13.967769141051763,0)" xlink:href="#P"/></g><path fill="#fff" d="M44-68c0 29 11 47 38 47 30 0 42-19 51-41l28 9C148-21 126 4 82 4 31 4 10-29 12-85c3-77 74-140 146-93 12 8 15 23 18 40l-31 5c-1-22-13-36-36-36-52 0-65 49-65 101" id="Y"/><g id="g"><use transform="matrix(0.050063688677604884,0,0,0.050063688677604884,0,0)" xlink:href="#Y"/><use transform="matrix(0.050063688677604884,0,0,0.050063688677604884,9.011463961968879,0)" xlink:href="#N"/><use transform="matrix(0.050063688677604884,0,0,0.050063688677604884,19.024201697489858,0)" xlink:href="#X"/><use transform="matrix(0.050063688677604884,0,0,0.050063688677604884,33.99324461209372,0)" xlink:href="#V"/><use transform="matrix(0.050063688677604884,0,0,0.050063688677604884,44.0059823476147,0)" xlink:href="#L"/><use transform="matrix(0.050063688677604884,0,0,0.050063688677604884,47.96101375314548,0)" xlink:href="#M"/><use transform="matrix(0.050063688677604884,0,0,0.050063688677604884,57.97375148866646,0)" xlink:href="#Q"/><use transform="matrix(0.050063688677604884,0,0,0.050063688677604884,67.98648922418744,0)" xlink:href="#Y"/><use transform="matrix(0.050063688677604884,0,0,0.050063688677604884,76.99795318615631,0)" xlink:href="#L"/><use transform="matrix(0.050063688677604884,0,0,0.050063688677604884,80.9529845916871,0)" xlink:href="#N"/><use transform="matrix(0.050063688677604884,0,0,0.050063688677604884,90.96572232720807,0)" xlink:href="#M"/><use transform="matrix(0.050063688677604884,0,0,0.050063688677604884,100.97846006272904,0)" xlink:href="#J"/><use transform="matrix(0.050063688677604884,0,0,0.050063688677604884,110.99119779825,0)" xlink:href="#P"/></g><path fill="#fff" d="M133-28C103 26-5 8 13-77c13-62 24-115 90-117 29-1 46 15 56 35l19-102h32L160 0h-30zM45-64c-2 27 10 43 35 43 54-1 69-50 69-103 0-29-15-46-42-46-53-1-58 58-62 106" id="Z"/><g id="h"><use transform="matrix(0.050063688677604884,0,0,0.050063688677604884,0,0)" xlink:href="#Z"/><use transform="matrix(0.050063688677604884,0,0,0.050063688677604884,10.012737735520977,0)" xlink:href="#J"/><use transform="matrix(0.050063688677604884,0,0,0.050063688677604884,20.025475471041954,0)" xlink:href="#O"/></g><path fill="#fff" d="M67-162c32-53 139-36 121 50C175-51 163 2 97 4 68 4 52-11 42-31 38 6 28 39 22 75H-9l50-265h29c-1 10 0 20-3 28zm89 36c0-26-10-43-35-43-54 0-67 50-69 103-1 29 14 45 42 46 53 0 62-58 62-106" id="aa"/><g id="i"><use transform="matrix(0.050063688677604884,0,0,0.050063688677604884,0,0)" xlink:href="#aa"/><use transform="matrix(0.050063688677604884,0,0,0.050063688677604884,10.012737735520977,0)" xlink:href="#R"/><use transform="matrix(0.050063688677604884,0,0,0.050063688677604884,15.970316688155958,0)" xlink:href="#L"/><use transform="matrix(0.050063688677604884,0,0,0.050063688677604884,19.925348093686743,0)" xlink:href="#X"/><use transform="matrix(0.050063688677604884,0,0,0.050063688677604884,34.894391008290604,0)" xlink:href="#J"/><use transform="matrix(0.050063688677604884,0,0,0.050063688677604884,44.90712874381158,0)" xlink:href="#R"/></g><g id="j"><use transform="matrix(0.050063688677604884,0,0,0.050063688677604884,0,0)" xlink:href="#Q"/><use transform="matrix(0.050063688677604884,0,0,0.050063688677604884,10.012737735520977,0)" xlink:href="#R"/><use transform="matrix(0.050063688677604884,0,0,0.050063688677604884,15.970316688155958,0)" xlink:href="#R"/><use transform="matrix(0.050063688677604884,0,0,0.050063688677604884,21.92789564079094,0)" xlink:href="#Q"/><use transform="matrix(0.050063688677604884,0,0,0.050063688677604884,31.940633376311915,0)" xlink:href="#S"/></g><use transform="matrix(0.050063688677604884,0,0,0.050063688677604884,0,0)" xlink:href="#S" id="k"/><g id="l"><use transform="matrix(0.050063688677604884,0,0,0.050063688677604884,0,0)" xlink:href="#J"/><use transform="matrix(0.050063688677604884,0,0,0.050063688677604884,10.012737735520977,0)" xlink:href="#O"/></g><path fill="#fff" d="M67 3c-93-2-31-127-26-193h32L48-50c-3 39 53 32 70 12 30-34 30-101 43-152h32L157 0h-30c1-10 6-24 4-33-14 20-29 37-64 36" id="ab"/><g id="m"><use transform="matrix(0.050063688677604884,0,0,0.050063688677604884,0,0)" xlink:href="#P"/><use transform="matrix(0.050063688677604884,0,0,0.050063688677604884,9.011463961968879,0)" xlink:href="#J"/><use transform="matrix(0.050063688677604884,0,0,0.050063688677604884,19.024201697489858,0)" xlink:href="#T"/><use transform="matrix(0.050063688677604884,0,0,0.050063688677604884,29.03693943301084,0)" xlink:href="#ab"/><use transform="matrix(0.050063688677604884,0,0,0.050063688677604884,39.049677168531815,0)" xlink:href="#M"/><use transform="matrix(0.050063688677604884,0,0,0.050063688677604884,49.062414904052794,0)" xlink:href="#Z"/><use transform="matrix(0.050063688677604884,0,0,0.050063688677604884,59.07515263957377,0)" xlink:href="#N"/></g><path fill="#fff" d="M194-120c59 52 2 134-86 124-53-6-90-18-98-63l31-7c8 30 29 43 70 43 46 0 84-17 71-62-32-43-135-20-137-98-3-89 178-90 191-16l-30 9c-8-48-127-53-127 5 0 53 81 35 115 65" id="ac"/><g id="n"><use transform="matrix(0.050063688677604884,0,0,0.050063688677604884,0,0)" xlink:href="#ac"/><use transform="matrix(0.050063688677604884,0,0,0.050063688677604884,12.015285282625172,0)" xlink:href="#J"/><use transform="matrix(0.050063688677604884,0,0,0.050063688677604884,22.02802301814615,0)" xlink:href="#O"/><use transform="matrix(0.050063688677604884,0,0,0.050063688677604884,25.983054423676936,0)" xlink:href="#J"/><use transform="matrix(0.050063688677604884,0,0,0.050063688677604884,35.99579215919791,0)" xlink:href="#Y"/><use transform="matrix(0.050063688677604884,0,0,0.050063688677604884,45.00725612116679,0)" xlink:href="#Y"/><use transform="matrix(0.050063688677604884,0,0,0.050063688677604884,54.01872008313567,0)" xlink:href="#L"/><use transform="matrix(0.050063688677604884,0,0,0.050063688677604884,57.97375148866646,0)" xlink:href="#N"/><use transform="matrix(0.050063688677604884,0,0,0.050063688677604884,67.98648922418742,0)" xlink:href="#M"/><use transform="matrix(0.050063688677604884,0,0,0.050063688677604884,77.9992269597084,0)" xlink:href="#Q"/><use transform="matrix(0.050063688677604884,0,0,0.050063688677604884,88.01196469522937,0)" xlink:href="#X"/><use transform="matrix(0.050063688677604884,0,0,0.050063688677604884,102.98100760983323,0)" xlink:href="#N"/><use transform="matrix(0.050063688677604884,0,0,0.050063688677604884,112.9937453453542,0)" xlink:href="#P"/></g><g id="o"><use transform="matrix(0.050063688677604884,0,0,0.050063688677604884,0,0)" xlink:href="#J"/><use transform="matrix(0.050063688677604884,0,0,0.050063688677604884,10.012737735520977,0)" xlink:href="#O"/></g><g id="p"><use transform="matrix(0.050063688677604884,0,0,0.050063688677604884,0,0)" xlink:href="#J"/><use transform="matrix(0.050063688677604884,0,0,0.050063688677604884,10.012737735520977,0)" xlink:href="#O"/><use transform="matrix(0.050063688677604884,0,0,0.050063688677604884,13.967769141051763,0)" xlink:href="#J"/><use transform="matrix(0.050063688677604884,0,0,0.050063688677604884,23.98050687657274,0)" xlink:href="#X"/><use transform="matrix(0.050063688677604884,0,0,0.050063688677604884,38.9495497911766,0)" xlink:href="#J"/><use transform="matrix(0.050063688677604884,0,0,0.050063688677604884,48.96228752669758,0)" xlink:href="#M"/><use transform="matrix(0.050063688677604884,0,0,0.050063688677604884,58.97502526221855,0)" xlink:href="#W"/><use transform="matrix(0.050063688677604884,0,0,0.050063688677604884,63.981394129979044,0)" xlink:href="#N"/></g><path fill="#fff" d="M67-158c15-20 31-36 64-36 94 0 33 127 27 194h-32l25-140c3-38-53-32-70-12C52-117 51-51 37 0H6l51-261h31" id="ad"/><g id="q"><use transform="matrix(0.050063688677604884,0,0,0.050063688677604884,0,0)" xlink:href="#ad"/><use transform="matrix(0.050063688677604884,0,0,0.050063688677604884,10.012737735520977,0)" xlink:href="#W"/><use transform="matrix(0.050063688677604884,0,0,0.050063688677604884,15.019106603281465,0)" xlink:href="#X"/><use transform="matrix(0.050063688677604884,0,0,0.050063688677604884,29.988149517885326,0)" xlink:href="#O"/></g><g id="r"><use transform="matrix(0.050063688677604884,0,0,0.050063688677604884,0,0)" xlink:href="#Q"/><use transform="matrix(0.050063688677604884,0,0,0.050063688677604884,10.012737735520977,0)" xlink:href="#O"/></g><path fill="#fff" d="M133-28C103 26-5 8 13-77c13-62 24-115 90-117 29-1 46 15 56 35 2-12 6-24 8-34h31L144 75h-31zM45-64c-2 27 10 43 35 43 54-1 69-50 69-103 0-29-15-46-42-46-53-1-58 58-62 106" id="ae"/><g id="s"><use transform="matrix(0.050063688677604884,0,0,0.050063688677604884,0,0)" xlink:href="#ae"/><use transform="matrix(0.050063688677604884,0,0,0.050063688677604884,10.012737735520977,0)" xlink:href="#ab"/><use transform="matrix(0.050063688677604884,0,0,0.050063688677604884,20.025475471041954,0)" xlink:href="#J"/></g><g id="t"><use transform="matrix(0.050063688677604884,0,0,0.050063688677604884,0,0)" xlink:href="#O"/><use transform="matrix(0.050063688677604884,0,0,0.050063688677604884,3.955031405530786,0)" xlink:href="#J"/></g><g id="u"><use transform="matrix(0.050063688677604884,0,0,0.050063688677604884,0,0)" xlink:href="#Q"/><use transform="matrix(0.050063688677604884,0,0,0.050063688677604884,10.012737735520977,0)" xlink:href="#P"/><use transform="matrix(0.050063688677604884,0,0,0.050063688677604884,19.024201697489858,0)" xlink:href="#L"/><use transform="matrix(0.050063688677604884,0,0,0.050063688677604884,22.979233103020643,0)" xlink:href="#T"/><use transform="matrix(0.050063688677604884,0,0,0.050063688677604884,32.99197083854162,0)" xlink:href="#M"/><use transform="matrix(0.050063688677604884,0,0,0.050063688677604884,43.0047085740626,0)" xlink:href="#Q"/><use transform="matrix(0.050063688677604884,0,0,0.050063688677604884,53.01744630958357,0)" xlink:href="#X"/><use transform="matrix(0.050063688677604884,0,0,0.050063688677604884,67.98648922418744,0)" xlink:href="#N"/><use transform="matrix(0.050063688677604884,0,0,0.050063688677604884,77.99922695970841,0)" xlink:href="#P"/></g><g id="v"><use transform="matrix(0.050063688677604884,0,0,0.050063688677604884,0,0)" xlink:href="#J"/><use transform="matrix(0.050063688677604884,0,0,0.050063688677604884,10.012737735520977,0)" xlink:href="#O"/></g><g id="w"><use transform="matrix(0.050063688677604884,0,0,0.050063688677604884,0,0)" xlink:href="#Y"/><use transform="matrix(0.050063688677604884,0,0,0.050063688677604884,9.011463961968879,0)" xlink:href="#N"/><use transform="matrix(0.050063688677604884,0,0,0.050063688677604884,19.024201697489858,0)" xlink:href="#M"/><use transform="matrix(0.050063688677604884,0,0,0.050063688677604884,29.03693943301084,0)" xlink:href="#W"/><use transform="matrix(0.050063688677604884,0,0,0.050063688677604884,34.04330830077132,0)" xlink:href="#J"/><use transform="matrix(0.050063688677604884,0,0,0.050063688677604884,44.0560460362923,0)" xlink:href="#M"/><use transform="matrix(0.050063688677604884,0,0,0.050063688677604884,54.06878377181327,0)" xlink:href="#L"/><use transform="matrix(0.050063688677604884,0,0,0.050063688677604884,58.02381517734406,0)" xlink:href="#Z"/><use transform="matrix(0.050063688677604884,0,0,0.050063688677604884,68.03655291286503,0)" xlink:href="#N"/></g><g id="x"><use transform="matrix(0.05,0,0,0.05,0,0)" xlink:href="#U"/><use transform="matrix(0.05,0,0,0.05,14,0)" xlink:href="#V"/><use transform="matrix(0.05,0,0,0.05,24,0)" xlink:href="#W"/><use transform="matrix(0.05,0,0,0.05,29,0)" xlink:href="#J"/><use transform="matrix(0.05,0,0,0.05,39,0)" xlink:href="#M"/><use transform="matrix(0.05,0,0,0.05,49,0)" xlink:href="#J"/><use transform="matrix(0.05,0,0,0.05,59,0)" xlink:href="#X"/><use transform="matrix(0.05,0,0,0.05,73.95,0)" xlink:href="#N"/><use transform="matrix(0.05,0,0,0.05,83.95,0)" xlink:href="#P"/></g><g id="y"><use transform="matrix(0.05,0,0,0.05,0,0)" xlink:href="#W"/><use transform="matrix(0.05,0,0,0.05,5,0)" xlink:href="#N"/><use transform="matrix(0.05,0,0,0.05,15,0)" xlink:href="#Z"/><use transform="matrix(0.05,0,0,0.05,25,0)" xlink:href="#Q"/><use transform="matrix(0.05,0,0,0.05,35,0)" xlink:href="#P"/></g><g id="z"><use transform="matrix(0.05,0,0,0.05,0,0)" xlink:href="#O"/><use transform="matrix(0.05,0,0,0.05,3.95,0)" xlink:href="#Q"/><use transform="matrix(0.05,0,0,0.05,13.949999999999998,0)" xlink:href="#P"/></g><g id="A"><use transform="matrix(0.05,0,0,0.05,0,0)" xlink:href="#Y"/><use transform="matrix(0.05,0,0,0.05,9,0)" xlink:href="#N"/><use transform="matrix(0.05,0,0,0.05,19,0)" xlink:href="#X"/><use transform="matrix(0.05,0,0,0.05,33.95,0)" xlink:href="#V"/><use transform="matrix(0.05,0,0,0.05,43.95,0)" xlink:href="#L"/><use transform="matrix(0.05,0,0,0.05,47.900000000000006,0)" xlink:href="#M"/><use transform="matrix(0.05,0,0,0.05,57.900000000000006,0)" xlink:href="#Q"/><use transform="matrix(0.05,0,0,0.05,67.9,0)" xlink:href="#Y"/><use transform="matrix(0.05,0,0,0.05,76.9,0)" xlink:href="#L"/><use transform="matrix(0.05,0,0,0.05,80.85000000000001,0)" xlink:href="#N"/><use transform="matrix(0.05,0,0,0.05,90.85000000000001,0)" xlink:href="#M"/><use transform="matrix(0.05,0,0,0.05,100.85000000000001,0)" xlink:href="#J"/><use transform="matrix(0.05,0,0,0.05,110.85000000000001,0)" xlink:href="#P"/></g><g id="B"><use transform="matrix(0.05,0,0,0.05,0,0)" xlink:href="#Z"/><use transform="matrix(0.05,0,0,0.05,10,0)" xlink:href="#J"/><use transform="matrix(0.05,0,0,0.05,20,0)" xlink:href="#O"/></g><g id="C"><use transform="matrix(0.05,0,0,0.05,0,0)" xlink:href="#Q"/><use transform="matrix(0.05,0,0,0.05,10,0)" xlink:href="#R"/><use transform="matrix(0.05,0,0,0.05,15.949999999999998,0)" xlink:href="#R"/><use transform="matrix(0.05,0,0,0.05,21.9,0)" xlink:href="#Q"/><use transform="matrix(0.05,0,0,0.05,31.899999999999995,0)" xlink:href="#S"/></g><g id="D"><use transform="matrix(0.05,0,0,0.05,0,0)" xlink:href="#R"/><use transform="matrix(0.05,0,0,0.05,5.95,0)" xlink:href="#J"/><use transform="matrix(0.05,0,0,0.05,15.949999999999998,0)" xlink:href="#P"/><use transform="matrix(0.05,0,0,0.05,24.95,0)" xlink:href="#ab"/><use transform="matrix(0.05,0,0,0.05,34.95,0)" xlink:href="#O"/><use transform="matrix(0.05,0,0,0.05,38.900000000000006,0)" xlink:href="#W"/><use transform="matrix(0.05,0,0,0.05,43.900000000000006,0)" xlink:href="#Q"/><use transform="matrix(0.05,0,0,0.05,53.900000000000006,0)" xlink:href="#M"/><use transform="matrix(0.05,0,0,0.05,63.900000000000006,0)" xlink:href="#Z"/><use transform="matrix(0.05,0,0,0.05,73.9,0)" xlink:href="#N"/></g><use transform="matrix(0.05,0,0,0.05,0,0)" xlink:href="#S" id="E"/><g id="F"><use transform="matrix(0.05,0,0,0.05,0,0)" xlink:href="#J"/><use transform="matrix(0.05,0,0,0.05,10,0)" xlink:href="#O"/></g><g id="G"><use transform="matrix(0.05,0,0,0.05,0,0)" xlink:href="#W"/><use transform="matrix(0.05,0,0,0.05,5,0)" xlink:href="#J"/><use transform="matrix(0.05,0,0,0.05,15,0)" xlink:href="#R"/><use transform="matrix(0.05,0,0,0.05,20.95,0)" xlink:href="#Y"/><use transform="matrix(0.05,0,0,0.05,29.950000000000003,0)" xlink:href="#J"/><use transform="matrix(0.05,0,0,0.05,39.95,0)" xlink:href="#R"/></g><g id="H"><use transform="matrix(0.05,0,0,0.05,0,0)" xlink:href="#Q"/><use transform="matrix(0.05,0,0,0.05,10,0)" xlink:href="#R"/><use transform="matrix(0.05,0,0,0.05,15.949999999999998,0)" xlink:href="#R"/><use transform="matrix(0.05,0,0,0.05,21.9,0)" xlink:href="#Q"/><use transform="matrix(0.05,0,0,0.05,31.899999999999995,0)" xlink:href="#S"/></g></defs></g></svg>