<svg xmlns="http://www.w3.org/2000/svg" xmlns:xlink="http://www.w3.org/1999/xlink" xmlns:lucid="lucid" width="1760" height="1360"><g transform="translate(0 0)" lucid:page-tab-id="0_0"><path d="M655.9 540c27.03 0 48.96 54.14 48.96 120.92 0 66.8-21.93 120.93-48.97 120.93H508.96c-27.04 0-48.97-54.14-48.97-120.93C460 594.14 481.93 540 508.97 540z" stroke="#000" stroke-opacity="0" stroke-width="2" fill="#3278ca"/><use xlink:href="#a" transform="matrix(1,0,0,1,465,545) translate(22.45408704556713 97.8763423391502)"/><use xlink:href="#b" transform="matrix(1,0,0,1,465,545) translate(92.49318750553637 97.8763423391502)"/><use xlink:href="#c" transform="matrix(1,0,0,1,465,545) translate(117.52503184433881 97.8763423391502)"/><use xlink:href="#d" transform="matrix(1,0,0,1,465,545) translate(163.4834980503801 97.8763423391502)"/><use xlink:href="#e" transform="matrix(1,0,0,1,465,545) translate(29.012430262333364 119.50385584787551)"/><use xlink:href="#f" transform="matrix(1,0,0,1,465,545) translate(64.05701233665678 119.50385584787551)"/><use xlink:href="#g" transform="matrix(1,0,0,1,465,545) translate(137.04987042860472 119.50385584787551)"/><use xlink:href="#h" transform="matrix(1,0,0,1,465,545) translate(165.03547239938584 119.50385584787551)"/><use xlink:href="#i" transform="matrix(1,0,0,1,465,545) translate(62.980643030088274 141.13136935660083)"/><use xlink:href="#j" transform="matrix(1,0,0,1,465,545) translate(134.02101726360962 141.13136935660083)"/><use xlink:href="#k" transform="matrix(1,0,0,1,465,545) translate(148.03885009333897 141.13136935660083)"/><path d="M705.36 660.92h107.06" stroke="#333" fill="none"/><path d="M705.37 661.4h-.52v-.95h.52z" stroke="#333" stroke-width=".05" fill="#333"/><path d="M827.2 660.92l-14.28 4.64v-9.27z" stroke="#333" fill="#333"/><path d="M828.8 549.83a8 8 0 0 1 8-8h228.87a8 8 0 0 1 8 8V772a8 8 0 0 1-8 8H836.8a8 8 0 0 1-8-8z" stroke="#000" stroke-opacity="0" stroke-width="2" fill="#3278ca"/><g><use xlink:href="#l" transform="matrix(1,0,0,1,833.8087394731908,546.8315903443457) translate(46.084148101396636 96.8450923391502)"/><use xlink:href="#m" transform="matrix(1,0,0,1,833.8087394731908,546.8315903443457) translate(128.98961655151032 96.8450923391502)"/><use xlink:href="#n" transform="matrix(1,0,0,1,833.8087394731908,546.8315903443457) translate(147.96375456032257 96.8450923391502)"/><use xlink:href="#o" transform="matrix(1,0,0,1,833.8087394731908,546.8315903443457) translate(28.51179337555733 118.47260584787551)"/><use xlink:href="#p" transform="matrix(1,0,0,1,833.8087394731908,546.8315903443457) translate(112.51866297657831 118.47260584787551)"/><use xlink:href="#q" transform="matrix(1,0,0,1,833.8087394731908,546.8315903443457) translate(146.56197127734964 118.47260584787551)"/><use xlink:href="#n" transform="matrix(1,0,0,1,833.8087394731908,546.8315903443457) translate(165.5361092861619 118.47260584787551)"/><use xlink:href="#r" transform="matrix(1,0,0,1,833.8087394731908,546.8315903443457) translate(97.47452452895806 140.10011935660083)"/></g><path d="M1074.17 660.92h86.78" stroke="#333" fill="none"/><path d="M1074.18 661.4h-.5v-.95h.5z" stroke="#333" stroke-width=".05" fill="#333"/><path d="M1175.72 660.92l-14.27 4.64v-9.27z" stroke="#333" fill="#333"/><path d="M1331.03 570.24c27.04 0 48.97 35.54 48.97 79.4 0 43.84-21.93 79.38-48.97 79.38H1184.1c-27.03 0-48.96-35.54-48.96-79.4 0-43.84 21.92-79.38 48.97-79.38z" stroke="#000" stroke-opacity="0" stroke-width="2" fill="#3278ca"/><g><use xlink:href="#s" transform="matrix(1,0,0,1,1140.1398947768673,575.2361428168068) translate(45.6085430589594 78.6575923391502)"/><use xlink:href="#t" transform="matrix(1,0,0,1,1140.1398947768673,575.2361428168068) translate(115.3973250755406 78.6575923391502)"/></g><defs><path fill="#fff" d="M20-101c0-91 52-143 145-150 126-9 127 168 53 223-23 17-55 32-93 32C57 4 20-33 20-101zm216-33c5-57-18-91-73-90-77 1-110 51-110 125 0 49 23 75 73 75 72-1 104-45 110-110" id="u"/><path fill="#fff" d="M68-162c25-46 127-43 121 31C183-60 169 1 98 4 69 5 53-11 43-31L36 0H5l52-261h31zm88 36c2-27-9-43-34-43-55 0-70 51-70 103 0 29 15 45 43 46 52 0 58-58 61-106" id="v"/><path fill="#fff" d="M51-54c-9 22 5 41 31 30L79-1C43 14 10-4 19-52l22-115H19l5-23h22l19-43h21l-9 43h35l-4 23H73" id="w"/><path fill="#fff" d="M111-194c62-3 86 47 72 106H45c-7 38 6 69 45 68 27-1 43-14 53-32l24 11C152-15 129 4 87 4 38 3 12-23 12-71c0-70 32-119 99-123zm44 81c14-66-71-72-95-28-4 8-8 17-11 28h106" id="x"/><path fill="#fff" d="M67-158c22-48 132-52 116 29L158 0h-32l25-140c3-38-53-32-70-12C52-117 51-52 38 0H6l36-190h30" id="y"/><path fill="#fff" d="M66-151c12-25 30-51 66-40l-6 26C45-176 58-65 38 0H6l36-190h30" id="z"/><g id="a"><use transform="matrix(0.050063688677604884,0,0,0.050063688677604884,0,0)" xlink:href="#u"/><use transform="matrix(0.050063688677604884,0,0,0.050063688677604884,14.017832829729368,0)" xlink:href="#v"/><use transform="matrix(0.050063688677604884,0,0,0.050063688677604884,24.030570565250343,0)" xlink:href="#w"/><use transform="matrix(0.050063688677604884,0,0,0.050063688677604884,29.036939433010833,0)" xlink:href="#x"/><use transform="matrix(0.050063688677604884,0,0,0.050063688677604884,39.04967716853181,0)" xlink:href="#y"/><use transform="matrix(0.050063688677604884,0,0,0.050063688677604884,49.06241490405279,0)" xlink:href="#x"/><use transform="matrix(0.050063688677604884,0,0,0.050063688677604884,59.075152639573766,0)" xlink:href="#z"/></g><path fill="#fff" d="M67 3c-93-2-31-127-26-193h32L48-50c-3 39 53 32 70 12 30-34 30-101 43-152h32L157 0h-30c1-10 6-24 4-33-14 20-29 37-64 36" id="A"/><g id="b"><use transform="matrix(0.050063688677604884,0,0,0.050063688677604884,0,0)" xlink:href="#A"/><use transform="matrix(0.050063688677604884,0,0,0.050063688677604884,10.012737735520977,0)" xlink:href="#y"/></g><path fill="#fff" d="M165-48c-4 18 1 34 23 27l-3 20c-29 8-62 0-52-35h-2C116-14 99 4 63 4 30 4 8-16 8-49c0-68 71-67 138-67 10-26 0-56-31-54-26 1-42 9-47 31l-32-5c8-67 160-71 144 15-5 28-9 54-15 81zM42-50c3 52 80 24 89-6 7-12 7-24 11-38-47 1-103-4-100 44" id="B"/><path fill="#fff" d="M198-190L69 30C53 58 25 83-20 72c4-11-1-27 19-22 33-1 43-29 59-52L20-190h32L79-34l84-156h35" id="C"/><g id="c"><use transform="matrix(0.050063688677604884,0,0,0.050063688677604884,0,0)" xlink:href="#B"/><use transform="matrix(0.050063688677604884,0,0,0.050063688677604884,10.012737735520977,0)" xlink:href="#z"/><use transform="matrix(0.050063688677604884,0,0,0.050063688677604884,15.970316688155958,0)" xlink:href="#z"/><use transform="matrix(0.050063688677604884,0,0,0.050063688677604884,21.92789564079094,0)" xlink:href="#B"/><use transform="matrix(0.050063688677604884,0,0,0.050063688677604884,31.940633376311915,0)" xlink:href="#C"/></g><path fill="#fff" d="M89 0H52L20-190h33L74-25l89-165h34" id="D"/><path fill="#fff" d="M30-147c31-64 166-65 159 27C183-49 158 1 86 4 9 8 1-88 30-147zM88-20c53 0 68-48 68-100 0-31-11-51-44-50-52 1-68 46-68 97 0 32 13 53 44 53" id="E"/><g id="d"><use transform="matrix(0.050063688677604884,0,0,0.050063688677604884,0,0)" xlink:href="#y"/><use transform="matrix(0.050063688677604884,0,0,0.050063688677604884,10.012737735520977,0)" xlink:href="#A"/><use transform="matrix(0.050063688677604884,0,0,0.050063688677604884,20.025475471041954,0)" xlink:href="#x"/><use transform="matrix(0.050063688677604884,0,0,0.050063688677604884,30.03821320656293,0)" xlink:href="#D"/><use transform="matrix(0.050063688677604884,0,0,0.050063688677604884,39.04967716853181,0)" xlink:href="#E"/></g><path fill="#fff" d="M133-28C103 26-5 8 13-77c13-62 24-115 90-117 29-1 46 15 56 35 2-12 6-24 8-34h31L144 75h-31zM45-64c-2 27 10 43 35 43 54-1 69-50 69-103 0-29-15-46-42-46-53-1-58 58-62 106" id="F"/><g id="e"><use transform="matrix(0.050063688677604884,0,0,0.050063688677604884,0,0)" xlink:href="#F"/><use transform="matrix(0.050063688677604884,0,0,0.050063688677604884,10.012737735520977,0)" xlink:href="#A"/><use transform="matrix(0.050063688677604884,0,0,0.050063688677604884,20.025475471041954,0)" xlink:href="#x"/></g><path fill="#fff" d="M44-68c0 29 11 47 38 47 30 0 42-19 51-41l28 9C148-21 126 4 82 4 31 4 10-29 12-85c3-77 74-140 146-93 12 8 15 23 18 40l-31 5c-1-22-13-36-36-36-52 0-65 49-65 101" id="G"/><path fill="#fff" d="M248-111c6-24 9-61-24-58-72 9-57 108-77 169h-31l26-142c3-37-50-30-64-10C52-115 50-51 37 0H6l36-190h30c-1 10-6 24-4 32 13-43 101-52 105 5 13-22 29-41 61-41 90 0 28 129 23 194h-31" id="H"/><path fill="#fff" d="M50-231l6-30h32l-6 30H50zM6 0l37-190h31L37 0H6" id="I"/><g id="f"><use transform="matrix(0.050063688677604884,0,0,0.050063688677604884,0,0)" xlink:href="#G"/><use transform="matrix(0.050063688677604884,0,0,0.050063688677604884,9.011463961968879,0)" xlink:href="#E"/><use transform="matrix(0.050063688677604884,0,0,0.050063688677604884,19.024201697489858,0)" xlink:href="#H"/><use transform="matrix(0.050063688677604884,0,0,0.050063688677604884,33.99324461209372,0)" xlink:href="#v"/><use transform="matrix(0.050063688677604884,0,0,0.050063688677604884,44.0059823476147,0)" xlink:href="#I"/><use transform="matrix(0.050063688677604884,0,0,0.050063688677604884,47.96101375314548,0)" xlink:href="#y"/><use transform="matrix(0.050063688677604884,0,0,0.050063688677604884,57.97375148866646,0)" xlink:href="#x"/></g><path fill="#fff" d="M6 0l50-261h32L37 0H6" id="J"/><path fill="#fff" d="M55-144c13 50 104 24 104 88C159 21 15 23 1-39l26-10c6 40 102 42 102-4-13-50-104-23-104-87 0-71 143-71 148-8l-29 4c-5-35-85-37-89 0" id="K"/><g id="g"><use transform="matrix(0.050063688677604884,0,0,0.050063688677604884,0,0)" xlink:href="#J"/><use transform="matrix(0.050063688677604884,0,0,0.050063688677604884,3.955031405530786,0)" xlink:href="#E"/><use transform="matrix(0.050063688677604884,0,0,0.050063688677604884,13.967769141051763,0)" xlink:href="#K"/></g><g id="h"><use transform="matrix(0.050063688677604884,0,0,0.050063688677604884,0,0)" xlink:href="#B"/><use transform="matrix(0.050063688677604884,0,0,0.050063688677604884,10.012737735520977,0)" xlink:href="#z"/><use transform="matrix(0.050063688677604884,0,0,0.050063688677604884,15.970316688155958,0)" xlink:href="#z"/><use transform="matrix(0.050063688677604884,0,0,0.050063688677604884,21.92789564079094,0)" xlink:href="#B"/><use transform="matrix(0.050063688677604884,0,0,0.050063688677604884,31.940633376311915,0)" xlink:href="#C"/></g><path fill="#fff" d="M67-162c32-53 139-36 121 50C175-51 163 2 97 4 68 4 52-11 42-31 38 6 28 39 22 75H-9l50-265h29c-1 10 0 20-3 28zm89 36c0-26-10-43-35-43-54 0-67 50-69 103-1 29 14 45 42 46 53 0 62-58 62-106" id="L"/><g id="i"><use transform="matrix(0.050063688677604884,0,0,0.050063688677604884,0,0)" xlink:href="#L"/><use transform="matrix(0.050063688677604884,0,0,0.050063688677604884,10.012737735520977,0)" xlink:href="#z"/><use transform="matrix(0.050063688677604884,0,0,0.050063688677604884,15.970316688155958,0)" xlink:href="#E"/><use transform="matrix(0.050063688677604884,0,0,0.050063688677604884,25.983054423676936,0)" xlink:href="#y"/><use transform="matrix(0.050063688677604884,0,0,0.050063688677604884,35.99579215919791,0)" xlink:href="#E"/><use transform="matrix(0.050063688677604884,0,0,0.050063688677604884,46.00852989471889,0)" xlink:href="#A"/><use transform="matrix(0.050063688677604884,0,0,0.050063688677604884,56.02126763023986,0)" xlink:href="#y"/></g><use transform="matrix(0.050063688677604884,0,0,0.050063688677604884,0,0)" xlink:href="#C" id="j"/><path fill="#fff" d="M133-28C103 26-5 8 13-77c13-62 24-115 90-117 29-1 46 15 56 35l19-102h32L160 0h-30zM45-64c-2 27 10 43 35 43 54-1 69-50 69-103 0-29-15-46-42-46-53-1-58 58-62 106" id="M"/><path fill="#fff" d="M51-231l6-30h31l-6 30H51zM33 24C28 60 2 84-40 72c3-12-1-29 18-22C-5 49-1 37 2 19l41-209h32" id="N"/><g id="k"><use transform="matrix(0.050063688677604884,0,0,0.050063688677604884,0,0)" xlink:href="#B"/><use transform="matrix(0.050063688677604884,0,0,0.050063688677604884,10.012737735520977,0)" xlink:href="#M"/><use transform="matrix(0.050063688677604884,0,0,0.050063688677604884,20.025475471041954,0)" xlink:href="#N"/></g><path fill="#fff" d="M125-24c46 0 70-25 89-51l25 16C214-24 183 4 123 4 8 4-5-146 60-208c32-50 158-61 191-5 5 7 9 14 11 22l-32 10c-9-28-33-43-69-43-74 0-108 51-108 125 0 46 24 75 72 75" id="O"/><g id="l"><use transform="matrix(0.050063688677604884,0,0,0.050063688677604884,0,0)" xlink:href="#O"/><use transform="matrix(0.050063688677604884,0,0,0.050063688677604884,12.966495367499665,0)" xlink:href="#E"/><use transform="matrix(0.050063688677604884,0,0,0.050063688677604884,22.97923310302064,0)" xlink:href="#H"/><use transform="matrix(0.050063688677604884,0,0,0.050063688677604884,37.9482760176245,0)" xlink:href="#v"/><use transform="matrix(0.050063688677604884,0,0,0.050063688677604884,47.96101375314548,0)" xlink:href="#I"/><use transform="matrix(0.050063688677604884,0,0,0.050063688677604884,51.91604515867626,0)" xlink:href="#y"/><use transform="matrix(0.050063688677604884,0,0,0.050063688677604884,61.928782894197255,0)" xlink:href="#B"/><use transform="matrix(0.050063688677604884,0,0,0.050063688677604884,71.94152062971823,0)" xlink:href="#z"/></g><g id="m"><use transform="matrix(0.050063688677604884,0,0,0.050063688677604884,0,0)" xlink:href="#x"/><use transform="matrix(0.050063688677604884,0,0,0.050063688677604884,10.012737735520977,0)" xlink:href="#J"/></g><g id="n"><use transform="matrix(0.050063688677604884,0,0,0.050063688677604884,0,0)" xlink:href="#B"/><use transform="matrix(0.050063688677604884,0,0,0.050063688677604884,10.012737735520977,0)" xlink:href="#z"/><use transform="matrix(0.050063688677604884,0,0,0.050063688677604884,15.970316688155958,0)" xlink:href="#z"/><use transform="matrix(0.050063688677604884,0,0,0.050063688677604884,21.92789564079094,0)" xlink:href="#B"/><use transform="matrix(0.050063688677604884,0,0,0.050063688677604884,31.940633376311915,0)" xlink:href="#C"/></g><g id="o"><use transform="matrix(0.050063688677604884,0,0,0.050063688677604884,0,0)" xlink:href="#z"/><use transform="matrix(0.050063688677604884,0,0,0.050063688677604884,5.957578952634981,0)" xlink:href="#x"/><use transform="matrix(0.050063688677604884,0,0,0.050063688677604884,15.970316688155958,0)" xlink:href="#K"/><use transform="matrix(0.050063688677604884,0,0,0.050063688677604884,24.981780650124836,0)" xlink:href="#A"/><use transform="matrix(0.050063688677604884,0,0,0.050063688677604884,34.99451838564581,0)" xlink:href="#J"/><use transform="matrix(0.050063688677604884,0,0,0.050063688677604884,38.949549791176594,0)" xlink:href="#w"/><use transform="matrix(0.050063688677604884,0,0,0.050063688677604884,43.95591865893708,0)" xlink:href="#B"/><use transform="matrix(0.050063688677604884,0,0,0.050063688677604884,53.96865639445805,0)" xlink:href="#y"/><use transform="matrix(0.050063688677604884,0,0,0.050063688677604884,63.981394129979044,0)" xlink:href="#w"/><use transform="matrix(0.050063688677604884,0,0,0.050063688677604884,68.98776299773952,0)" xlink:href="#x"/></g><g id="p"><use transform="matrix(0.050063688677604884,0,0,0.050063688677604884,0,0)" xlink:href="#G"/><use transform="matrix(0.050063688677604884,0,0,0.050063688677604884,9.011463961968879,0)" xlink:href="#E"/><use transform="matrix(0.050063688677604884,0,0,0.050063688677604884,19.024201697489858,0)" xlink:href="#y"/></g><g id="q"><use transform="matrix(0.050063688677604884,0,0,0.050063688677604884,0,0)" xlink:href="#x"/><use transform="matrix(0.050063688677604884,0,0,0.050063688677604884,10.012737735520977,0)" xlink:href="#J"/></g><g id="r"><use transform="matrix(0.050063688677604884,0,0,0.050063688677604884,0,0)" xlink:href="#y"/><use transform="matrix(0.050063688677604884,0,0,0.050063688677604884,10.012737735520977,0)" xlink:href="#E"/><use transform="matrix(0.050063688677604884,0,0,0.050063688677604884,20.025475471041954,0)" xlink:href="#A"/><use transform="matrix(0.050063688677604884,0,0,0.050063688677604884,30.03821320656293,0)" xlink:href="#y"/></g><path fill="#fff" d="M14 0l48-248h34L48 0H14" id="P"/><g id="s"><use transform="matrix(0.050063688677604884,0,0,0.050063688677604884,0,0)" xlink:href="#P"/><use transform="matrix(0.050063688677604884,0,0,0.050063688677604884,5.0063688677604885,0)" xlink:href="#H"/><use transform="matrix(0.050063688677604884,0,0,0.050063688677604884,19.97541178236435,0)" xlink:href="#L"/><use transform="matrix(0.050063688677604884,0,0,0.050063688677604884,29.988149517885326,0)" xlink:href="#z"/><use transform="matrix(0.050063688677604884,0,0,0.050063688677604884,35.94572847052031,0)" xlink:href="#I"/><use transform="matrix(0.050063688677604884,0,0,0.050063688677604884,39.9007598760511,0)" xlink:href="#H"/><use transform="matrix(0.050063688677604884,0,0,0.050063688677604884,54.86980279065495,0)" xlink:href="#I"/><use transform="matrix(0.050063688677604884,0,0,0.050063688677604884,58.82483419618575,0)" xlink:href="#z"/></g><g id="t"><use transform="matrix(0.050063688677604884,0,0,0.050063688677604884,0,0)" xlink:href="#z"/><use transform="matrix(0.050063688677604884,0,0,0.050063688677604884,5.957578952634981,0)" xlink:href="#x"/><use transform="matrix(0.050063688677604884,0,0,0.050063688677604884,15.970316688155958,0)" xlink:href="#K"/><use transform="matrix(0.050063688677604884,0,0,0.050063688677604884,24.981780650124836,0)" xlink:href="#A"/><use transform="matrix(0.050063688677604884,0,0,0.050063688677604884,34.99451838564581,0)" xlink:href="#J"/><use transform="matrix(0.050063688677604884,0,0,0.050063688677604884,38.949549791176594,0)" xlink:href="#w"/><use transform="matrix(0.050063688677604884,0,0,0.050063688677604884,43.95591865893708,0)" xlink:href="#B"/><use transform="matrix(0.050063688677604884,0,0,0.050063688677604884,53.96865639445805,0)" xlink:href="#M"/><use transform="matrix(0.050063688677604884,0,0,0.050063688677604884,63.981394129979044,0)" xlink:href="#E"/></g></defs></g></svg>